# xmcd
#
# Track frame offsets: 
#        150
#        13389
#        29980
#        44861
#        63289
#        77266
#        89504
#        105574
#        125706
#        141626
#        154930
#
# Disc length: 2297 seconds
#
# Revision: 2
# Processed by: cddbd v1.5.2PL0 Copyright (c) Steve Scherf et al.
# Submitted via: ExactAudioCopy v0.99pb4
#
DISCID=a408f70b
DTITLE=Nitty Gritty Dirt Band - Acoustic
DYEAR=1900
DGENRE=
TTITLE0=How Long?
TTITLE1=Cupid's Got A Gun
TTITLE2=Sarah In The Summer
TTITLE3=Let It Roll
TTITLE4=Hello, I Am Your Heart
TTITLE5=Love Will Find A Way
TTITLE6=Tryin' Times
TTITLE7=This Train Keeps Rolling Along
TTITLE8=Badlands
TTITLE9=One Sure Honest Line
TTITLE10=The Broken Road
EXTD=
EXTT0=
EXTT1=
EXTT2=
EXTT3=
EXTT4=
EXTT5=
EXTT6=
EXTT7=
EXTT8=
EXTT9=
EXTT10=
PLAYORDER=
